<svg width="69" height="50" viewBox="0 0 69 50" fill="none" xmlns="http://www.w3.org/2000/svg">
<g filter="url(#filter0_i_1721_123)">
<path d="M33.2507 47.4763C34.5666 48.2207 36.7225 49.2347 39.6063 49.7224C42.0701 50.1331 44.17 50.0176 45.5839 49.8251C46.9698 49.6582 49.2376 49.2219 51.6874 47.964C54.0253 46.7576 55.5512 45.2815 56.4331 44.3061C57.819 44.0237 60.2968 43.3435 62.7606 41.5466C64.6925 40.1347 65.8684 38.5817 66.5264 37.5421C67.0583 36.8747 67.9123 35.6297 68.2903 33.8841C68.7522 31.7921 68.3043 30.085 68.0243 29.2636C67.6323 28.2753 66.9603 26.9533 65.7984 25.6056C63.9926 23.4879 61.8927 22.3712 60.6468 21.8065C61.0108 20.9466 61.5427 19.2909 61.2907 17.2116C60.9128 14.1954 59.0789 12.2445 58.393 11.5899C57.525 10.8712 55.9711 9.75453 53.7313 9.03577C51.1555 8.21434 48.9156 8.29135 47.7117 8.4197C47.1098 7.23889 45.3739 4.23552 41.5381 2.10492C38.0524 0.166854 34.7066 0 33.2647 0C31.9068 0.115514 28.883 0.526231 25.8453 2.51564C23.0454 4.35103 21.6595 6.60998 21.0716 7.72661C19.9377 7.45708 17.2079 6.95652 14.1141 8.00898C12.3922 8.58655 11.1463 9.44649 10.3903 10.0754C9.5924 10.6786 7.84253 12.1932 6.89059 14.7345C5.98066 17.1474 6.27464 19.2139 6.47062 20.1508C5.72868 20.5358 1.82295 22.6664 0.451049 27.2613C-0.920854 31.8306 1.23499 35.4757 1.65496 36.1688C1.97694 36.926 2.98487 38.9668 5.4207 40.4171C7.32456 41.5466 9.17243 41.7776 10.0824 41.829C10.3623 42.6119 11.1183 44.3189 12.9802 45.7949C15.01 47.3993 17.1799 47.7843 18.0618 47.8999C19.7977 48.3619 22.2755 48.8368 25.2853 48.7983C28.7011 48.7598 31.4449 48.0795 33.2647 47.4891H33.2507V47.4763Z" fill="url(#paint0_linear_1721_123)"/>
<path d="M33.2507 47.4763C34.5666 48.2207 36.7225 49.2347 39.6063 49.7224C42.0701 50.1331 44.17 50.0176 45.5839 49.8251C46.9698 49.6582 49.2376 49.2219 51.6874 47.964C54.0253 46.7576 55.5512 45.2815 56.4331 44.3061C57.819 44.0237 60.2968 43.3435 62.7606 41.5466C64.6925 40.1347 65.8684 38.5817 66.5264 37.5421C67.0583 36.8747 67.9123 35.6297 68.2903 33.8841C68.7522 31.7921 68.3043 30.085 68.0243 29.2636C67.6323 28.2753 66.9603 26.9533 65.7984 25.6056C63.9926 23.4879 61.8927 22.3712 60.6468 21.8065C61.0108 20.9466 61.5427 19.2909 61.2907 17.2116C60.9128 14.1954 59.0789 12.2445 58.393 11.5899C57.525 10.8712 55.9711 9.75453 53.7313 9.03577C51.1555 8.21434 48.9156 8.29135 47.7117 8.4197C47.1098 7.23889 45.3739 4.23552 41.5381 2.10492C38.0524 0.166854 34.7066 0 33.2647 0C31.9068 0.115514 28.883 0.526231 25.8453 2.51564C23.0454 4.35103 21.6595 6.60998 21.0716 7.72661C19.9377 7.45708 17.2079 6.95652 14.1141 8.00898C12.3922 8.58655 11.1463 9.44649 10.3903 10.0754C9.5924 10.6786 7.84253 12.1932 6.89059 14.7345C5.98066 17.1474 6.27464 19.2139 6.47062 20.1508C5.72868 20.5358 1.82295 22.6664 0.451049 27.2613C-0.920854 31.8306 1.23499 35.4757 1.65496 36.1688C1.97694 36.926 2.98487 38.9668 5.4207 40.4171C7.32456 41.5466 9.17243 41.7776 10.0824 41.829C10.3623 42.6119 11.1183 44.3189 12.9802 45.7949C15.01 47.3993 17.1799 47.7843 18.0618 47.8999C19.7977 48.3619 22.2755 48.8368 25.2853 48.7983C28.7011 48.7598 31.4449 48.0795 33.2647 47.4891H33.2507V47.4763Z" fill="url(#paint1_linear_1721_123)"/>
</g>
<path d="M32.9146 19.3162C34.1825 19.3162 35.2104 17.7877 35.2104 15.9021C35.2104 14.0166 34.1825 12.488 32.9146 12.488C31.6466 12.488 30.6187 14.0166 30.6187 15.9021C30.6187 17.7877 31.6466 19.3162 32.9146 19.3162Z" fill="#F5F5F5"/>
<path d="M31.8229 18.277C32.7043 18.277 33.4188 17.2139 33.4188 15.9025C33.4188 14.5912 32.7043 13.5281 31.8229 13.5281C30.9415 13.5281 30.227 14.5912 30.227 15.9025C30.227 17.2139 30.9415 18.277 31.8229 18.277Z" fill="#202429"/>
<path d="M38.3182 19.3162C39.5861 19.3162 40.614 17.7877 40.614 15.9021C40.614 14.0166 39.5861 12.488 38.3182 12.488C37.0502 12.488 36.0223 14.0166 36.0223 15.9021C36.0223 17.7877 37.0502 19.3162 38.3182 19.3162Z" fill="#F5F5F5"/>
<path d="M37.2265 18.277C38.1079 18.277 38.8224 17.2139 38.8224 15.9025C38.8224 14.5912 38.1079 13.5281 37.2265 13.5281C36.3451 13.5281 35.6306 14.5912 35.6306 15.9025C35.6306 17.2139 36.3451 18.277 37.2265 18.277Z" fill="#202429"/>
<path d="M32.5592 21.2554C32.5592 21.3067 32.7894 21.765 33.6771 22.0474C34.1461 22.2014 34.5817 22.1372 34.7659 22.1116C35.0842 22.0731 36.2462 21.6537 36.2462 21.6537L37.2738 21.26" stroke="#202429" stroke-width="0.47271" stroke-linecap="round" stroke-linejoin="round"/>
<path d="M36.7599 20.8662L37.7876 21.2599" stroke="black" stroke-width="0.47" stroke-linecap="round"/>
<defs>
<filter id="filter0_i_1721_123" x="-1" y="-4" width="69.4897" height="54" filterUnits="userSpaceOnUse" color-interpolation-filters="sRGB">
<feFlood flood-opacity="0" result="BackgroundImageFix"/>
<feBlend mode="normal" in="SourceGraphic" in2="BackgroundImageFix" result="shape"/>
<feColorMatrix in="SourceAlpha" type="matrix" values="0 0 0 0 0 0 0 0 0 0 0 0 0 0 0 0 0 0 127 0" result="hardAlpha"/>
<feOffset dx="-1" dy="-4"/>
<feGaussianBlur stdDeviation="4.35"/>
<feComposite in2="hardAlpha" operator="arithmetic" k2="-1" k3="1"/>
<feColorMatrix type="matrix" values="0 0 0 0 0.976471 0 0 0 0 0.917647 0 0 0 0 0.941176 0 0 0 0.9 0"/>
<feBlend mode="normal" in2="shape" result="effect1_innerShadow_1721_123"/>
</filter>
<linearGradient id="paint0_linear_1721_123" x1="34.2448" y1="-14.5669" x2="34.2448" y2="50" gradientUnits="userSpaceOnUse">
<stop stop-color="#D3E1E4"/>
<stop offset="1" stop-color="#9BBCC3"/>
</linearGradient>
<linearGradient id="paint1_linear_1721_123" x1="34.2448" y1="0" x2="34.2448" y2="39.2683" gradientUnits="userSpaceOnUse">
<stop stop-color="#D3E1E4"/>
<stop offset="1" stop-color="#8296D2"/>
</linearGradient>
</defs>
</svg>
